PathFileType	4	(X/Y/Z)	S01_0005_Gait_markers.trc
DataRate	CameraRate	NumFrames	NumMarkers	Units	OrigDataRate	OrigDataStartFrame	OrigNumFrames
250.000000	250.000000	4	54	mm	250.000000	0	324
Frame#	Time	HEAD_ANT			R_HEAD			L_HEAD			C7			R_BACK			L_BACK			STERNUM			R_ACROMION			R_HUM_PROX			R_HUM_ANT			R_HUM_POST			R_ELBOW_LAT			R_ELBOW_MED			R_FOREARM			R_WIRST_LAT			R_WRITS_MED			R_HAND			L_ACROMION			L_HUM_PROX			L_HUM_ANT			L_HUM_POST			L_ELBOW_LAT			L_ELBOW_MED			L_FOREARM			L_WRIST_LAT			L_WIRST_MED			L_HAND			R_ILIAC			SACRUM			L_ILIAC			R_GTROCH			R_THIGH__1			R_THIGH_2			R_THIGH_3			R_THIGH_4			R_SHANK_1			R_SHANK_2			R_SHANK_3			R_SHANK_4			R_HEEL			R_FOOT_LAT			R_FOOT_MED			L_GTROCH			L_THIGH_1			L_THIGH_2			L_THIGH_3			L_THIGH_4			L_SHANK_1			L_SHANK_2			L_SHANK_3			L_SHANK_4			L_HEEL			L_FOOT_LAT			L_FOOT_MED			
		X1	Y1	Z1	X2	Y2	Z2	X3	Y3	Z3	X4	Y4	Z4	X5	Y5	Z5	X6	Y6	Z6	X7	Y7	Z7	X8	Y8	Z8	X9	Y9	Z9	X10	Y10	Z10	X11	Y11	Z11	X12	Y12	Z12	X13	Y13	Z13	X14	Y14	Z14	X15	Y15	Z15	X16	Y16	Z16	X17	Y17	Z17	X18	Y18	Z18	X19	Y19	Z19	X20	Y20	Z20	X21	Y21	Z21	X22	Y22	Z22	X23	Y23	Z23	X24	Y24	Z24	X25	Y25	Z25	X26	Y26	Z26	X27	Y27	Z27	X28	Y28	Z28	X29	Y29	Z29	X30	Y30	Z30	X31	Y31	Z31	X32	Y32	Z32	X33	Y33	Z33	X34	Y34	Z34	X35	Y35	Z35	X36	Y36	Z36	X37	Y37	Z37	X38	Y38	Z38	X39	Y39	Z39	X40	Y40	Z40	X41	Y41	Z41	X42	Y42	Z42	X43	Y43	Z43	X44	Y44	Z44	X45	Y45	Z45	X46	Y46	Z46	X47	Y47	Z47	X48	Y48	Z48	X49	Y49	Z49	X50	Y50	Z50	X51	Y51	Z51	X52	Y52	Z52	X53	Y53	Z53	X54	Y54	Z54	

1	0	175.2639923095703	1725.207397460938	-321.1504211425777	116.1014785766602	1672.08203125	-246.6771545410153	119.6694259643555	1680.340209960938	-395.454437255859	-25.7238941192627	1509.349609375	-335.0004882812497	-106.6889724731445	1313.932495117188	-274.1983642578122	-98.512939453125	1318.859008789062	-413.2033081054685	142.6810913085938	1338.156616210938	-321.409484863281	37.760498046875	1456.699829101562	-157.1611480712887	-16.84292411804199	1300.1171875	-67.18498992919893	39.73757553100586	1211.54541015625	-58.40956878662082	-81.895263671875	1220.184692382812	-59.64267730712864	-41.4763298034668	1112.26416015625	-45.9514656066892	-58.75370788574219	1106.469970703125	-129.5717926025388	66.99835205078125	933.5785522460938	-37.34670639038065	113.8425827026367	872.1226196289062	-72.43370819091777	44.43041229248047	842.2936401367188	-44.07555007934552	119.1379547119141	785.1089477539062	-14.02620983123762	64.59272766113281	1461.198364257812	-495.7990112304684	57.40473175048828	1297.107788085938	-593.7356567382809	122.3907852172852	1219.173583984375	-585.2032470703123	6.534624099731445	1217.814697265625	-627.2900390624998	69.71907043457031	1115.870483398438	-629.6304931640623	13.04471969604492	1105.09716796875	-578.8398437499998	196.4999389648438	957.8439331054689	-588.8082275390623	232.3838348388672	906.2120361328126	-531.8051757812498	196.9900970458984	873.5426635742189	-596.4620971679685	277.767822265625	830.2051391601564	-567.8723144531248	38.61906433105469	1058.35595703125	-158.7387237548826	-84.927734375	1032.998779296875	-322.5285339355466	32.41999816894531	1052.602661132812	-503.5292663574216	6.605793952941895	906.8218994140625	-143.0575561523436	114.130859375	635.5943603515625	-157.5807189941405	163.6428070068359	667.9707641601562	-149.3231201171874	198.3087158203125	573.3112182617188	-181.3009490966796	134.7937927246094	558.1512451171875	-180.8769378662108	203.1079864501953	345.2795410156251	-171.7199096679687	262.3739929199219	346.3391113281251	-183.6382446289062	289.408447265625	264.9287414550782	-202.1204681396484	227.9639129638672	248.3055572509766	-192.269546508789	274.0997314453125	38.14861297607428	-278.6083374023438	433.8440246582031	64.03614044189457	-190.3441467285156	474.6918640136719	98.38861846923834	-279.8370666503906	-14.41965198516846	948.9077148437501	-503.2122802734373	-4.460474014282227	657.4415283203126	-489.9134826660155	-52.00076675415039	690.9485473632814	-502.9894104003905	-90.48225402832031	597.0012207031251	-469.6863708496093	-28.2427978515625	582.7975463867189	-465.0158081054686	-149.6652374267578	333.2079467773439	-450.1216735839843	-209.9501037597656	329.5847473144532	-452.0899047851562	-237.7936096191406	248.4453887939454	-432.2702941894531	-175.0663757324219	236.226058959961	-425.2623291015624	-330.095947265625	81.34364318847665	-357.3932800292969	-165.5004577636719	20.70040893554697	-429.7216491699219	-125.462272644043	25.66497611999519	-325.3062438964844	
2	0.004	180.7444458007812	1723.933349609375	-320.4454650878902	121.5255508422852	1670.784301757812	-246.0781402587887	125.1965408325195	1679.105346679688	-394.8469543457027	-20.18043327331543	1508.159301757812	-334.4833984374997	-100.9956741333008	1312.745971679688	-273.878479003906	-93.16545104980469	1317.782836914062	-412.7119140624997	148.3195190429688	1337	-321.1700744628903	43.31949996948242	1455.330810546875	-156.65901184082	-11.61133003234863	1298.755615234375	-66.85566711425753	44.86657333374023	1210.185913085938	-58.01150894165012	-76.59190368652344	1218.912841796875	-59.73214340209934	-36.68955230712891	1110.99560546875	-45.66300582885717	-53.42671966552734	1105.230712890625	-129.4834442138669	71.96587371826172	932.306396484375	-36.99636840820292	118.918342590332	871.0498657226562	-72.21593475341777	49.41194915771484	841.0320434570312	-43.99375534057599	124.2627944946289	783.9130249023438	-13.46652889251692	70.19081115722656	1459.967895507812	-495.343597412109	63.0870475769043	1295.922241210938	-593.1832275390622	128.18359375	1218.231201171875	-584.7844238281248	12.25884628295898	1216.5283203125	-626.9636230468748	75.88054656982422	1114.82666015625	-629.245910644531	19.34846115112305	1103.776489257813	-578.2899169921873	203.0244598388672	957.0490722656251	-588.3312377929685	238.9922027587891	905.5609130859376	-531.5570678710935	203.7874603271484	872.7897338867189	-596.0253295898435	284.6577453613281	829.6721801757814	-567.4663085937498	44.2414436340332	1056.864990234375	-158.773254394531	-79.097900390625	1032.25830078125	-322.1208496093748	37.95029067993164	1051.616577148438	-503.3584899902341	12.42077445983887	905.4732666015625	-143.0771484374998	120.2118759155273	634.6769409179688	-157.1518096923827	169.6598510742188	666.9237670898438	-149.4953613281249	204.5487976074219	572.8823852539062	-181.5530242919921	140.9716033935547	557.0911254882812	-180.4841918945311	210.931396484375	344.5323791503907	-171.5548858642577	270.1248168945312	346.3997192382813	-183.8295898437499	298.2894287109375	266.0527954101563	-200.4085693359374	236.9849853515625	247.6833038330079	-192.6256561279296	285.4188842773438	38.60297393798835	-279.1270141601562	445.7370300292969	65.43956756591801	-191.5869750976562	485.3520812988281	100.5274047851563	-281.2322082519531	-9.320849418640137	948.2463378906251	-503.3959045410154	-0.3623882234096527	656.9149169921876	-490.3421020507811	-47.70424270629883	690.3710327148439	-502.6692504882811	-86.23155975341797	596.8643188476564	-470.2697143554686	-24.27209091186523	582.3314819335939	-465.2754516601561	-147.2925109863281	333.1011047363282	-450.2228698730468	-207.4476165771484	330.0184936523439	-452.3093261718749	-235.7553100585938	249.3325958251954	-432.5114746093749	-173.3971862792969	236.2490539550782	-425.0890808105468	-329.7271423339844	82.4296188354493	-357.8838500976562	-165.4207000732422	20.67729187011728	-429.7723999023438	-125.4739685058594	25.68838691711433	-325.352294921875	
3	0.008	186.2413330078125	1723.019409179688	-319.7472229003902	126.8703842163086	1669.662231445312	-245.6997680664059	130.4968109130859	1678.172973632812	-394.1838378906246	-14.66479396820068	1507.057250976562	-333.855560302734	-95.3870849609375	1311.473022460938	-273.602600097656	-87.53127288818359	1316.613037109375	-412.1802978515622	153.9484252929688	1335.814575195312	-320.8602905273435	48.9365119934082	1454.1748046875	-156.1353607177731	-6.41105842590332	1297.428588867188	-66.73085021972628	49.94903945922852	1208.735107421875	-57.76946258544895	-71.37307739257812	1217.783813476562	-59.52511978149387	-32.03006744384766	1109.888427734375	-45.56010437011694	-47.8439826965332	1103.804931640625	-129.0450592041013	76.86079406738281	931.0422973632812	-36.85338592529276	123.9265518188477	869.810791015625	-71.85349273681621	54.44618606567383	839.6809692382812	-43.87262344360333	129.3562622070312	782.8018188476562	-12.9199609756468	75.51526641845703	1458.861572265625	-494.9784240722653	68.90715789794922	1294.829467773438	-592.6389160156247	134.1266784667969	1217.26220703125	-584.3490600585935	18.04715347290039	1215.396850585938	-626.4357910156248	81.93987274169922	1113.732055664063	-628.8572998046873	25.46110534667969	1102.5478515625	-577.7597045898435	209.4988861083984	956.3439331054689	-587.9143066406248	245.5568237304688	904.8941650390626	-531.053283691406	210.4257507324219	871.9736328125001	-595.6774291992185	291.3926391601562	829.2236938476564	-567.245422363281	50.62406921386719	1055.311157226562	-158.3612213134763	-73.61954498291016	1031.303955078125	-321.8455505371091	43.67829132080078	1050.58447265625	-503.0666198730466	18.41863250732422	904.151123046875	-142.8700714111326	126.419792175293	633.72021484375	-157.2187652587889	175.8781433105469	666.221435546875	-149.4764099121092	210.5627593994141	571.8030395507812	-181.7027740478514	147.0992279052734	556.2271728515625	-180.8257446289061	218.5783843994141	343.7608642578126	-171.9813385009765	277.7482604980469	346.2705078125001	-183.9158630371093	306.6650390625	265.5608215332032	-202.2906494140624	245.6348876953125	247.3298797607422	-192.7614593505859	295.9851989746094	38.88905334472663	-279.5111694335938	456.7644653320312	66.46948242187504	-192.8973388671875	495.4256286621094	102.6550674438477	-282.8490600585938	-3.964595794677734	947.3963623046876	-503.3287658691404	4.039730548858643	656.0560913085939	-490.4444885253905	-43.41019439697266	689.9758300781251	-502.9825134277342	-82.11453247070312	596.4465332031251	-470.1241760253905	-20.2468147277832	581.6756591796876	-465.5466308593749	-144.697509765625	332.7506408691407	-450.8063659667968	-205.0519256591797	330.2230834960939	-452.8680725097656	-233.7334442138672	249.9707031250001	-433.0773620605468	-171.7947845458984	236.5531616210938	-425.3156738281249	-329.2882690429688	83.59777069091805	-358.5674133300781	-165.2931518554688	20.61834335327158	-429.8992309570312	-125.545295715332	25.72453308105476	-325.4170837402344	
4	0.012	191.8093719482422	1721.922241210938	-318.9594116210934	132.3423919677734	1668.48193359375	-245.1147918701168	135.9264068603516	1677.065307617188	-393.5097656249996	-9.109594345092773	1506.026977539062	-333.2375183105465	-89.71698760986328	1310.405151367188	-273.2643432617185	-81.96429443359375	1315.316528320312	-411.5990295410153	159.7321014404297	1334.6787109375	-320.5112609863278	54.54890823364258	1452.919067382812	-155.6441345214841	-1.182366728782654	1296.284301757812	-66.52504730224581	55.12189102172852	1207.42431640625	-57.16606521606418	-66.14829254150391	1216.629638671875	-59.28537750244114	-27.1775951385498	1108.763305664062	-45.55490112304663	-42.68911743164062	1102.556884765625	-128.7595520019529	81.93998718261719	929.8033447265625	-36.61175537109354	129.0907592773438	868.7495727539062	-71.21988677978496	59.55102157592773	838.5304565429688	-43.74286270141583	134.4402770996094	781.8095092773438	-12.66651725769026	80.93558502197266	1457.841796875	-494.4920043945309	74.64028167724609	1293.758056640625	-592.2141113281247	140.0644226074219	1216.347412109375	-583.8595581054685	24.0158805847168	1214.169677734375	-626.0008544921873	88.02919769287109	1112.707885742188	-628.3056640624998	31.47834014892578	1101.420043945313	-577.3624877929685	215.9606018066406	955.4653930664064	-587.4769897460935	252.1342315673828	904.2636108398439	-530.6102294921873	217.1195373535156	871.3101806640626	-595.2635498046873	298.21337890625	828.6093139648439	-566.6983642578123	57.51782989501953	1054.101318359375	-158.1496887207029	-67.94265747070312	1030.342529296875	-321.5799865722654	49.4222412109375	1049.661743164062	-502.7160034179685	24.3974723815918	902.9248046875	-142.9977569580076	132.8061370849609	632.8243408203125	-156.9616241455077	182.2393188476562	665.4243774414062	-149.6556396484374	216.8963470458984	571.30615234375	-182.0632324218749	153.591064453125	555.4948120117188	-181.2962036132811	226.1024017333984	343.0306701660157	-171.7510986328124	285.2899780273438	346.1717834472657	-183.258819580078	315.0559997558594	266.2327575683594	-200.8846740722656	254.1182708740234	246.9240722656251	-192.7726593017578	306.30859375	39.00838851928717	-280.1626892089844	467.2654418945312	67.68782043457036	-194.1698150634765	505.0159912109375	104.7515335083008	-284.0623779296875	1.231103658676147	946.6892089843751	-503.3543701171873	8.636371612548828	655.3481445312501	-490.6411132812498	-38.49183654785156	689.4722290039064	-503.0676269531248	-77.97141265869141	595.7335815429689	-470.105987548828	-15.95370197296143	581.0058593750001	-465.743438720703	-141.8895263671875	332.6533508300782	-450.5584716796874	-202.4066619873047	331.0097045898439	-453.3566284179687	-232.1013488769531	250.5027465820313	-433.4423828124999	-169.7445526123047	236.6309661865235	-425.9318542480468	-328.8381042480469	84.85040283203134	-359.4019470214844	-165.2181854248047	20.54815292358408	-430.079833984375	-125.5967483520508	25.73675346374519	-325.4163208007812	
